<svg width="32" height="32" viewBox="0 0 32 32" fill="none" xmlns="http://www.w3.org/2000/svg">
  <!-- Tooth -->
  <path d="M16 8C16 6.89543 16.8954 6 18 6C19.1046 6 20 6.89543 20 8V12C20 13.1046 19.1046 14 18 14C16.8954 14 16 13.1046 16 12V8Z" fill="#0f172a"/>
  <path d="M14 12C14 10.8954 14.8954 10 16 10C17.1046 10 18 10.8954 18 12V16C18 17.1046 17.1046 18 16 18C14.8954 18 14 17.1046 14 16V12Z" fill="#0f172a"/>
  <path d="M12 16C12 14.8954 12.8954 14 14 14C15.1046 14 16 14.8954 16 16V20C16 21.1046 15.1046 22 14 22C12.8954 22 12 21.1046 12 20V16Z" fill="#0f172a"/>
  <path d="M16 20C16 18.8954 16.8954 18 18 18C19.1046 18 20 18.8954 20 20V22C20 23.1046 19.1046 24 18 24C16.8954 24 16 23.1046 16 22V20Z" fill="#0f172a"/>
  <path d="M8 16C8 14.8954 8.89543 14 10 14C11.1046 14 12 14.8954 12 16V18C12 19.1046 11.1046 20 10 20C8.89543 20 8 19.1046 8 18V16Z" fill="#0f172a"/>
  <path d="M20 16C20 14.8954 20.8954 14 22 14C23.1046 14 24 14.8954 24 16V18C24 19.1046 23.1046 20 22 20C20.8954 20 20 19.1046 20 18V16Z" fill="#0f172a"/>
</svg>

